<?xml version="1.0" encoding="UTF-8" standalone="no"?>
<!DOCTYPE svg PUBLIC "-//W3C//DTD SVG 1.1//EN" "http://www.w3.org/Graphics/SVG/1.1/DTD/svg11.dtd">
<svg width="100%" height="100%" viewBox="0 0 685 60" version="1.1" xmlns="http://www.w3.org/2000/svg" xmlns:xlink="http://www.w3.org/1999/xlink" xml:space="preserve" xmlns:serif="http://www.serif.com/" style="fill-rule:evenodd;clip-rule:evenodd;stroke-linecap:round;stroke-linejoin:round;stroke-miterlimit:1.5;">
    <g transform="matrix(1,0,0,1,-146.750517,-431)">
        <path d="M430,434L471,434" style="fill:none;stroke:rgb(50,48,48);stroke-width:4.17px;"/>
        <g transform="matrix(1,0,0,0.964404,0,15.448793)">
            <path d="M450.5,434L450.5,490.186" style="fill:none;stroke:rgb(50,48,48);stroke-width:4.24px;"/>
        </g>
        <path d="M491,488.186L491,434L512,434C512,434 527,435.709 527,450C527,464.291 510.703,466.297 510.703,466.297L491,466.297" style="fill:none;stroke:rgb(50,48,48);stroke-width:4.17px;"/>
        <path d="M512.458,465.96L527,488.186" style="fill:none;stroke:rgb(50,48,48);stroke-width:4.17px;"/>
        <g id="Revo">
            <path d="M376.566,431.731C386.257,433.692 401.039,440.402 401.039,460.961C401.039,476.132 391.114,483.787 382.648,487.496C372.319,492.136 360.272,490.698 351.326,483.757C345.67,479.359 341,472.305 341,461C341,441.22 354.821,434.453 363.378,432.148C367.682,430.988 372.197,430.845 376.566,431.731ZM376.068,447.362C373.276,446.093 370.129,445.836 367.168,446.637C362.775,447.818 356.288,451.227 357,461C357.438,467.012 359.881,470.616 362.608,472.776C367.265,476.426 373.809,476.439 378.48,472.805C381.339,470.589 383.939,466.869 384,460.672C384.078,452.675 379.748,449.022 376.068,447.362Z" style="fill:rgb(209,38,46);"/>
            <path d="M376.566,431.731C386.257,433.692 401.039,440.402 401.039,460.961C401.039,476.132 391.114,483.787 382.648,487.496C372.319,492.136 360.272,490.698 351.326,483.757C345.67,479.359 341,472.305 341,461C341,441.22 354.821,434.453 363.378,432.148C367.682,430.988 372.197,430.845 376.566,431.731ZM376.068,447.362C373.276,446.093 370.129,445.836 367.168,446.637C362.775,447.818 356.288,451.227 357,461C357.438,467.012 359.881,470.616 362.608,472.776C367.265,476.426 373.809,476.439 378.48,472.805C381.339,470.589 383.939,466.869 384,460.672C384.078,452.675 379.748,449.022 376.068,447.362Z" style="fill:rgb(209,38,46);"/>
            <path d="M146.751,491L146.751,480L162,458L174,458C174,458 180,456.564 180,452C180,447.436 178.001,445.896 172,444C172.467,443.997 180,431 180,431C180,431 191.304,431.419 195,443C198.696,454.581 194.391,464.752 186,469C186.046,469.354 200,491 200,491L181,491L169,473L163,473L163,491L146.751,491Z" style="fill:rgb(209,38,46);"/>
            <path d="M217,431L259,431L259,446.108L235.892,446.108C235.892,446.108 232,446.214 232,450C232,453.786 235,454 235,454L257,454L257,468.869L235.131,468.869C235.131,468.869 232,468.563 232,472C232,475.437 235,476 235,476L260,476L260,491L217,491L217,431Z" style="fill:rgb(209,38,46);"/>
            <path d="M274,431L290.938,431L300,457C303.267,466.372 306,457 306,457L315,431L332,431L309,491L297,491L274,431Z" style="fill:rgb(209,38,46);"/>
        </g>
        <path d="M545,488.186L568,434L592,488.186" style="fill:none;stroke:rgb(50,48,48);stroke-width:4.17px;"/>
        <path d="M585.2,472.832L551.586,472.832" style="fill:none;stroke:rgb(50,48,48);stroke-width:4.17px;"/>
        <path d="M653,442C653,442 648.112,434 634,434C619.888,434 608,444.628 608,461.093C608,477.557 620.462,488.186 634,488.186C647.538,488.186 653,480 653,480" style="fill:none;stroke:rgb(50,48,48);stroke-width:4.17px;"/>
        <path d="M676,434L676,488.186" style="fill:none;stroke:rgb(50,48,48);stroke-width:4.17px;"/>
        <path d="M676,471L710,434" style="fill:none;stroke:rgb(50,48,48);stroke-width:4.17px;"/>
        <path d="M687.847,458.108L712,488.186" style="fill:none;stroke:rgb(50,48,48);stroke-width:4.17px;"/>
        <path d="M768,488.186L736,488.186L736,434L767,434" style="fill:none;stroke:rgb(50,48,48);stroke-width:4.17px;"/>
        <path d="M736,460.979L764,461.093" style="fill:none;stroke:rgb(50,48,48);stroke-width:4.17px;"/>
        <path d="M793,488.186L793,434L816,434C816,434 829,436.488 829,451C829,465.512 813.783,466.217 813.783,466.217L793,466.189" style="fill:none;stroke:rgb(50,48,48);stroke-width:4.17px;"/>
        <path d="M813.783,466.217L829,488.186" style="fill:none;stroke:rgb(50,48,48);stroke-width:4.17px;"/>
    </g>
</svg>
